<?xml version="1.0" encoding="UTF-8"?><svg id="Layer_1" xmlns="http://www.w3.org/2000/svg" viewBox="0 0 576 144"><defs><style>.cls-1{fill:#008c95;}.cls-2{fill:#d5992c;}.cls-3{fill:#58595b;}</style></defs><g><path class="cls-1" d="M88.85,83.9c0,11.31-7.44,18.34-19.4,18.34s-19.4-7.03-19.4-18.34V46.13h-6.49v37.92c0,14.94,10.16,24.6,25.89,24.6s25.89-9.66,25.89-24.6V46.13h-6.49v37.77Z"/><path class="cls-1" d="M141.57,73.67l-.29-.09c-10.6-3.34-17.04-5.84-17.04-12.37,0-6.19,5.89-10.04,15.37-10.04,10.06,0,16.82,4.22,16.82,10.5v1.38h6.41v-1.68c0-9.49-9.77-16.38-23.23-16.38s-22.09,6.64-22.09,16.53c0,11.6,12.64,15.48,21.87,18.31,10.7,3.24,17.72,5.87,17.72,12.6,0,6.19-6.12,10.04-15.98,10.04-10.56,0-17.65-4.22-17.65-10.5v-1.3h-6.41v1.61c0,9.64,9.9,16.38,24.07,16.38s22.77-6.46,22.77-16.45c0-11.74-12.91-15.66-22.34-18.53Z"/><polygon class="cls-1" points="186.25 107.51 229.05 107.51 229.05 101.1 192.74 101.1 192.74 80.48 223.65 80.48 223.65 74.22 192.74 74.22 192.74 52.54 229.05 52.54 229.05 46.13 186.25 46.13 186.25 107.51"/><polygon class="cls-1" points="252.78 106.51 267.93 106.51 267.93 86.18 292.21 86.18 292.21 72.4 267.93 72.4 267.93 61.9 296.86 61.9 296.86 47.13 252.78 47.13 252.78 106.51"/><polygon class="cls-1" points="438.58 47.13 423.43 47.13 423.43 106.51 467.05 106.51 467.05 91.82 438.58 91.82 438.58 47.13"/><polygon class="cls-1" points="503.97 91.82 503.97 47.13 488.82 47.13 488.82 106.51 532.45 106.51 532.45 91.82 503.97 91.82"/><path class="cls-2" d="M332.04,67.58h0c.02,15.56,12.64,28.17,28.2,28.17s28.18-12.61,28.2-28.17h0v-3.27h-56.4v3.27Z"/><path class="cls-1" d="M395.47,46.41v10.86h0v10.32c-.02,19.41-15.83,35.2-35.24,35.2s-35.22-15.79-35.24-35.21v-31.58h0v-6.5s7.53,7.53,7.53,7.53l4.28-4.28-14.7-14.7-14.7,14.7,4.28,4.28,7.44-7.44v37.99c.03,22.65,18.47,41.07,41.11,41.07s41.08-18.42,41.11-41.06v-21.19h-5.87Z"/></g><path class="cls-3" d="M538.09,42.25c4.09,0,7.41,3.32,7.41,7.41s-3.32,7.41-7.41,7.41-7.41-3.32-7.41-7.41,3.32-7.41,7.41-7.41Zm0,13.84c3.57,0,6.43-2.87,6.43-6.43s-2.87-6.43-6.43-6.43-6.43,2.87-6.43,6.43,2.87,6.43,6.43,6.43Zm2.2-3.02l-1.46-2.53h-2.47v2.53h-.92v-7.16h3.29c1.55,0,2.44,1.07,2.44,2.32,0,.95-.52,1.8-1.43,2.13l1.59,2.71h-1.04Zm-3.93-6.25v2.8h2.35c.98,0,1.55-.7,1.55-1.4s-.58-1.4-1.55-1.4h-2.35Z"/></svg>