<?xml version="1.0" encoding="UTF-8"?><svg id="Layer_1" xmlns="http://www.w3.org/2000/svg" viewBox="0 0 288 288"><defs><style>.cls-1{fill:#008c95;}.cls-2{fill:#d5992c;}.cls-3{fill:#58595b;}</style></defs><g><path class="cls-2" d="M75.92,154.15h0c.05,37.4,30.38,67.71,67.79,67.71s67.74-30.31,67.79-67.71h0v-7.87H75.92v7.87Z"/><path class="cls-1" d="M228.42,103.26v26.11h0v24.81c-.06,46.65-38.06,84.61-84.71,84.61s-84.66-37.96-84.71-84.63V78.25h0v-15.62s18.09,18.09,18.09,18.09l10.28-10.28L52.04,35.11,16.72,70.44l10.28,10.28,17.89-17.89v91.32c.07,54.45,44.4,98.74,98.82,98.74s98.75-44.28,98.82-98.7v-50.93h-14.11Z"/></g><path class="cls-3" d="M252.75,103c4.09,0,7.41,3.32,7.41,7.41s-3.32,7.41-7.41,7.41-7.41-3.32-7.41-7.41,3.32-7.41,7.41-7.41Zm0,13.84c3.57,0,6.43-2.87,6.43-6.43s-2.87-6.43-6.43-6.43-6.43,2.87-6.43,6.43,2.87,6.43,6.43,6.43Zm2.2-3.02l-1.46-2.53h-2.47v2.53h-.92v-7.16h3.29c1.55,0,2.44,1.07,2.44,2.32,0,.95-.52,1.8-1.43,2.13l1.59,2.71h-1.04Zm-3.93-6.25v2.8h2.35c.98,0,1.55-.7,1.55-1.4s-.58-1.4-1.55-1.4h-2.35Z"/></svg>